<svg width="27" height="25" viewBox="0 0 27 25" fill="none" xmlns="http://www.w3.org/2000/svg">
<g clip-path="url(#clip0_445_7690)">
<path d="M3.33337 6.25C3.33337 5.4212 3.68456 4.62634 4.30968 4.04029C4.93481 3.45424 5.78265 3.125 6.66671 3.125H16.6667C17.5508 3.125 18.3986 3.45424 19.0237 4.04029C19.6488 4.62634 20 5.4212 20 6.25V24.2187C20 24.3601 19.959 24.4987 19.8815 24.6199C19.804 24.7411 19.6929 24.8404 19.56 24.9071C19.4272 24.9738 19.2775 25.0055 19.1269 24.9987C18.9763 24.9919 18.8305 24.947 18.705 24.8688L11.6667 20.4703L4.62837 24.8688C4.50288 24.947 4.35709 24.9919 4.20653 24.9987C4.05596 25.0055 3.90626 24.9738 3.77337 24.9071C3.64048 24.8404 3.52938 24.7411 3.4519 24.6199C3.37441 24.4987 3.33345 24.3601 3.33337 24.2187V6.25Z" fill="#BBAF74"/>
<path d="M7.11328 1.5625C7.40584 1.08745 7.82661 0.692966 8.33333 0.41869C8.84004 0.144415 9.41484 1.39351e-05 9.99995 0L19.9999 0C20.884 0 21.7318 0.32924 22.357 0.915291C22.9821 1.50134 23.3333 2.2962 23.3333 3.125V21.0938C23.3332 21.2351 23.2922 21.3737 23.2148 21.4949C23.1373 21.6161 23.0262 21.7154 22.8933 21.7821C22.7604 21.8488 22.6107 21.8805 22.4601 21.8737C22.3096 21.867 22.1638 21.822 22.0383 21.7438L21.6666 21.5125V3.125C21.6666 2.7106 21.491 2.31317 21.1785 2.02015C20.8659 1.72712 20.442 1.5625 19.9999 1.5625H7.11328Z" fill="#BBAF74"/>
</g>
<defs>
<clipPath id="clip0_445_7690">
<rect width="26.6667" height="25" fill="white"/>
</clipPath>
</defs>
</svg>
