<svg width="30" height="30" viewBox="0 0 30 30" fill="none" xmlns="http://www.w3.org/2000/svg">
<g clip-path="url(#clip0_346_4803)">
<path d="M21.5177 29.9984L21.5416 29.499C21.6206 29.5028 21.6992 29.4851 21.769 29.4477C21.8388 29.4104 21.8971 29.3548 21.9378 29.2869C21.9785 29.219 22 29.1414 22 29.0622V7.5C22 6.63805 21.6576 5.8114 21.0481 5.2019C20.4386 4.59241 19.612 4.25 18.75 4.25H7.5C6.63805 4.25 5.8114 4.59241 5.2019 5.2019C4.59241 5.8114 4.25 6.63805 4.25 7.5L4.25 29.0622C4.25004 29.1414 4.27155 29.219 4.31222 29.2869C4.3529 29.3548 4.41123 29.4104 4.481 29.4477C4.55077 29.4851 4.62936 29.5028 4.7084 29.499L4.7323 29.9984L4.70841 29.499C4.78732 29.4952 4.86374 29.4702 4.92955 29.4265L21.5177 29.9984ZM21.5177 29.9984L21.5416 29.499C21.4625 29.4952 21.386 29.4701 21.3201 29.4262L13.4023 24.1483L13.125 23.9635L12.8477 24.1483L4.92988 29.4262L21.5177 29.9984ZM5.125 28.2455V27.3113V7.5C5.125 6.87011 5.37522 6.26602 5.82062 5.82062C6.26602 5.37522 6.87011 5.125 7.5 5.125H18.75C19.3799 5.125 19.984 5.37522 20.4294 5.82062C20.8748 6.26602 21.125 6.87011 21.125 7.5V27.3113V28.2455L20.3477 27.7273L13.3674 23.0738L5.125 28.2455ZM5.125 28.2455L5.90235 27.7273M5.125 28.2455L5.90235 27.7273M5.90235 27.7273L12.8826 23.0738M5.90235 27.7273L12.8826 23.0738M12.8826 23.0738L12.883 23.0735C12.9547 23.0259 13.0389 23.0005 13.125 23.0005C13.2111 23.0005 13.2953 23.0259 13.367 23.0735L12.8826 23.0738Z" fill="black" stroke="#BBAF74"/>
<path d="M25.0701 25.6762L25.0696 25.6759L24.8749 25.5467V3.75C24.8749 3.12011 24.6247 2.51602 24.1793 2.07062C23.7339 1.62522 23.1298 1.375 22.4999 1.375H9.03151C9.21124 1.20711 9.4102 1.05946 9.625 0.935438C10.119 0.650194 10.6795 0.500017 11.2499 0.5C11.2499 0.5 11.2499 0.5 11.25 0.5H22.4999C23.3619 0.5 24.1885 0.84241 24.798 1.4519C25.4075 2.0614 25.7499 2.88805 25.7499 3.75V25.3122C25.7499 25.3914 25.7284 25.469 25.6877 25.5369C25.647 25.6048 25.5887 25.6604 25.5189 25.6977C25.4492 25.7351 25.3706 25.7528 25.2915 25.749L25.2676 26.2484L25.2915 25.749C25.2125 25.7452 25.1359 25.7201 25.0701 25.6762Z" fill="black" stroke="#BBAF74"/>
</g>
<defs>
<clipPath id="clip0_346_4803">
<rect width="30" height="30" fill="white"/>
</clipPath>
</defs>
</svg>
