<svg width="28" height="28" viewBox="0 0 28 28" fill="none" xmlns="http://www.w3.org/2000/svg">
<g clip-path="url(#clip0_837_5371)">
<path d="M26.7587 0H14.8773C14.5507 0 14.2333 0.130667 14 0.364L0.364 14C-0.121333 14.4853 -0.121333 15.2693 0.364 15.7547L12.2453 27.636C12.7307 28.1213 13.5147 28.1213 14 27.636L27.636 14C27.8693 13.7667 28 13.4493 28 13.1227V1.24133C28 0.56 27.4493 0 26.7587 0ZM21.8027 8.68C20.4307 8.68 19.32 7.56933 19.32 6.19733C19.32 4.82533 20.4307 3.71467 21.8027 3.71467C23.1747 3.71467 24.2853 4.82533 24.2853 6.19733C24.2853 7.56933 23.1747 8.68 21.8027 8.68Z" fill="#160c0c"/>
</g>
<defs>
<clipPath id="clip0_837_5371">
<rect width="28" height="28" fill="white"/>
</clipPath>
</defs>
</svg>
