<svg width="36" height="36" viewBox="0 0 36 36" fill="none" xmlns="http://www.w3.org/2000/svg">
<rect width="36" height="36" rx="18" fill="#160C0C"/>
<path d="M18 31.125C14.519 31.125 11.1806 29.7422 8.71922 27.2808C6.25781 24.8194 4.875 21.481 4.875 18C4.875 14.519 6.25781 11.1806 8.71922 8.71922C11.1806 6.25781 14.519 4.875 18 4.875C21.481 4.875 24.8194 6.25781 27.2808 8.71922C29.7422 11.1806 31.125 14.519 31.125 18C31.125 21.481 29.7422 24.8194 27.2808 27.2808C24.8194 29.7422 21.481 31.125 18 31.125ZM18 33C21.9782 33 25.7936 31.4196 28.6066 28.6066C31.4196 25.7936 33 21.9782 33 18C33 14.0218 31.4196 10.2064 28.6066 7.3934C25.7936 4.58035 21.9782 3 18 3C14.0218 3 10.2064 4.58035 7.3934 7.3934C4.58035 10.2064 3 14.0218 3 18C3 21.9782 4.58035 25.7936 7.3934 28.6066C10.2064 31.4196 14.0218 33 18 33Z" fill="#BBAF74"/>
<path d="M18 10.5C18.2486 10.5 18.4871 10.5988 18.6629 10.7746C18.8387 10.9504 18.9375 11.1889 18.9375 11.4375V17.0625H24.5625C24.8111 17.0625 25.0496 17.1613 25.2254 17.3371C25.4012 17.5129 25.5 17.7514 25.5 18C25.5 18.2486 25.4012 18.4871 25.2254 18.6629C25.0496 18.8387 24.8111 18.9375 24.5625 18.9375H18.9375V24.5625C18.9375 24.8111 18.8387 25.0496 18.6629 25.2254C18.4871 25.4012 18.2486 25.5 18 25.5C17.7514 25.5 17.5129 25.4012 17.3371 25.2254C17.1613 25.0496 17.0625 24.8111 17.0625 24.5625V18.9375H11.4375C11.1889 18.9375 10.9504 18.8387 10.7746 18.6629C10.5988 18.4871 10.5 18.2486 10.5 18C10.5 17.7514 10.5988 17.5129 10.7746 17.3371C10.9504 17.1613 11.1889 17.0625 11.4375 17.0625H17.0625V11.4375C17.0625 11.1889 17.1613 10.9504 17.3371 10.7746C17.5129 10.5988 17.7514 10.5 18 10.5Z" fill="#BBAF74"/>
</svg>
