<svg width="30" height="30" viewBox="0 0 30 30" fill="none" xmlns="http://www.w3.org/2000/svg">
<path fill-rule="evenodd" clip-rule="evenodd" d="M6.83622 3.08622C6.9233 2.99891 7.02676 2.92964 7.14065 2.88238C7.25455 2.83512 7.37665 2.81079 7.49997 2.81079C7.62328 2.81079 7.74538 2.83512 7.85928 2.88238C7.97318 2.92964 8.07663 2.99891 8.16372 3.08622L19.4137 14.3362C19.501 14.4233 19.5703 14.5268 19.6176 14.6407C19.6648 14.7546 19.6891 14.8767 19.6891 15C19.6891 15.1233 19.6648 15.2454 19.6176 15.3593C19.5703 15.4732 19.501 15.5766 19.4137 15.6637L8.16372 26.9137C7.98768 27.0898 7.74892 27.1887 7.49997 27.1887C7.25101 27.1887 7.01225 27.0898 6.83622 26.9137C6.66018 26.7377 6.56128 26.4989 6.56128 26.25C6.56128 26.001 6.66018 25.7623 6.83622 25.5862L17.4243 15L6.83622 4.41372C6.74891 4.32663 6.67964 4.22318 6.63238 4.10928C6.58512 3.99538 6.56079 3.87328 6.56079 3.74997C6.56079 3.62665 6.58512 3.50455 6.63238 3.39065C6.67964 3.27676 6.74891 3.1733 6.83622 3.08622Z" fill="#BBAF74"/>
<path fill-rule="evenodd" clip-rule="evenodd" d="M14.3362 3.08622C14.4233 2.99891 14.5268 2.92964 14.6407 2.88238C14.7546 2.83512 14.8767 2.81079 15 2.81079C15.1233 2.81079 15.2454 2.83512 15.3593 2.88238C15.4732 2.92964 15.5766 2.99891 15.6637 3.08622L26.9137 14.3362C27.001 14.4233 27.0703 14.5268 27.1176 14.6407C27.1648 14.7546 27.1891 14.8767 27.1891 15C27.1891 15.1233 27.1648 15.2454 27.1176 15.3593C27.0703 15.4732 27.001 15.5766 26.9137 15.6637L15.6637 26.9137C15.4877 27.0898 15.2489 27.1887 15 27.1887C14.751 27.1887 14.5123 27.0898 14.3362 26.9137C14.1602 26.7377 14.0613 26.4989 14.0613 26.25C14.0613 26.001 14.1602 25.7623 14.3362 25.5862L24.9243 15L14.3362 4.41372C14.2489 4.32663 14.1796 4.22318 14.1324 4.10928C14.0851 3.99538 14.0608 3.87328 14.0608 3.74997C14.0608 3.62665 14.0851 3.50455 14.1324 3.39065C14.1796 3.27676 14.2489 3.1733 14.3362 3.08622Z" fill="#BBAF74"/>
</svg>
