<svg width="30" height="30" viewBox="0 0 30 30" fill="none" xmlns="http://www.w3.org/2000/svg">
<path fill-rule="evenodd" clip-rule="evenodd" d="M3.08622 12.4612C3.1733 12.3739 3.27676 12.3046 3.39065 12.2574C3.50455 12.2101 3.62665 12.1858 3.74997 12.1858C3.87328 12.1858 3.99538 12.2101 4.10928 12.2574C4.22318 12.3046 4.32663 12.3739 4.41372 12.4612L15 23.0493L25.5862 12.4612C25.7623 12.2852 26.001 12.1863 26.25 12.1863C26.4989 12.1863 26.7377 12.2852 26.9137 12.4612C27.0898 12.6373 27.1887 12.876 27.1887 13.125C27.1887 13.3739 27.0898 13.6127 26.9137 13.7887L15.6637 25.0387C15.5766 25.126 15.4732 25.1953 15.3593 25.2426C15.2454 25.2898 15.1233 25.3141 15 25.3141C14.8767 25.3141 14.7546 25.2898 14.6407 25.2426C14.5268 25.1953 14.4233 25.126 14.3362 25.0387L3.08622 13.7887C2.99891 13.7016 2.92964 13.5982 2.88238 13.4843C2.83512 13.3704 2.81079 13.2483 2.81079 13.125C2.81079 13.0017 2.83512 12.8796 2.88238 12.7657C2.92964 12.6518 2.99891 12.5483 3.08622 12.4612Z" fill="#BBAF74"/>
<path fill-rule="evenodd" clip-rule="evenodd" d="M3.08622 4.96122C3.1733 4.87391 3.27676 4.80464 3.39065 4.75738C3.50455 4.71012 3.62665 4.68579 3.74997 4.68579C3.87328 4.68579 3.99538 4.71012 4.10928 4.75738C4.22318 4.80464 4.32663 4.87391 4.41372 4.96122L15 15.5493L25.5862 4.96122C25.6734 4.87405 25.7769 4.80491 25.8907 4.75774C26.0046 4.71056 26.1267 4.68628 26.25 4.68628C26.3732 4.68628 26.4953 4.71056 26.6092 4.75774C26.7231 4.80491 26.8266 4.87405 26.9137 4.96122C27.0009 5.04838 27.07 5.15186 27.1172 5.26575C27.1644 5.37963 27.1887 5.5017 27.1887 5.62497C27.1887 5.74824 27.1644 5.8703 27.1172 5.98419C27.07 6.09807 27.0009 6.20155 26.9137 6.28872L15.6637 17.5387C15.5766 17.626 15.4732 17.6953 15.3593 17.7426C15.2454 17.7898 15.1233 17.8141 15 17.8141C14.8767 17.8141 14.7546 17.7898 14.6407 17.7426C14.5268 17.6953 14.4233 17.626 14.3362 17.5387L3.08622 6.28872C2.99891 6.20163 2.92964 6.09818 2.88238 5.98428C2.83512 5.87038 2.81079 5.74828 2.81079 5.62497C2.81079 5.50165 2.83512 5.37955 2.88238 5.26565C2.92964 5.15176 2.99891 5.0483 3.08622 4.96122Z" fill="#BBAF74"/>
</svg>
