<svg width="30" height="24" viewBox="0 0 30 24" fill="none" xmlns="http://www.w3.org/2000/svg">
<g clip-path="url(#clip0_341_7867)">
<path d="M1.81877 0.239082C1.33127 -0.145293 0.623457 -0.0562306 0.239082 0.431269C-0.145293 0.918769 -0.0562306 1.62658 0.431269 2.01096L28.1813 23.761C28.6688 24.1453 29.3766 24.0563 29.761 23.5688C30.1453 23.0813 30.0563 22.3735 29.5688 21.9891L24.6375 18.1266C26.4938 16.2235 27.75 14.0906 28.3828 12.5766C28.5375 12.2063 28.5375 11.7938 28.3828 11.4235C27.6844 9.75002 26.2172 7.31252 24.0235 5.27814C21.8203 3.22502 18.7875 1.50002 15 1.50002C11.8031 1.50002 9.14064 2.73283 7.06408 4.35002L1.81877 0.239082ZM10.4578 7.00783C11.6531 5.91564 13.2516 5.25002 15 5.25002C18.7266 5.25002 21.75 8.27346 21.75 12C21.75 13.1672 21.4547 14.2641 20.9344 15.2203L19.125 13.8047C19.5188 12.9 19.6219 11.8641 19.35 10.8375C18.8297 8.89221 17.1094 7.58439 15.1969 7.50471C14.925 7.49533 14.7656 7.79064 14.85 8.05314C14.9485 8.35314 15.0047 8.67189 15.0047 9.00471C15.0047 9.48283 14.8922 9.93283 14.6953 10.3313L10.4625 7.01252L10.4578 7.00783ZM17.4844 18.2766C16.7156 18.5813 15.8766 18.75 15 18.75C11.2735 18.75 8.25002 15.7266 8.25002 12C8.25002 11.6766 8.27346 11.3625 8.31564 11.0531L3.89533 7.57033C2.82658 8.96252 2.06252 10.35 1.61721 11.4235C1.46252 11.7938 1.46252 12.2063 1.61721 12.5766C2.31564 14.25 3.78283 16.6875 5.97658 18.7219C8.17971 20.775 11.2125 22.5 15 22.5C17.2406 22.5 19.2141 21.8953 20.9156 20.9766L17.4844 18.2766Z" fill="#BBAF74"/>
</g>
<defs>
<clipPath id="clip0_341_7867">
<rect width="30" height="24" fill="white"/>
</clipPath>
</defs>
</svg>
