<svg width="31" height="30" viewBox="0 0 31 30" fill="none" xmlns="http://www.w3.org/2000/svg">
<path d="M13.9427 2.05654C14.2604 1.36513 14.0208 0.51552 13.4115 0.158098C12.8021 -0.199324 12.0417 0.0702071 11.724 0.755754L6.875 11.2499H2.41667C1.49479 11.2499 0.75 12.0878 0.75 13.1249C0.75 14.162 1.49479 14.9999 2.41667 14.9999L5.11979 27.1581C5.48958 28.828 6.82292 29.9999 8.35417 29.9999H23.1458C24.6771 29.9999 26.0104 28.828 26.3802 27.1581L29.0833 14.9999C30.0052 14.9999 30.75 14.162 30.75 13.1249C30.75 12.0878 30.0052 11.2499 29.0833 11.2499H24.625L19.776 0.755754C19.4583 0.0702071 18.7031 -0.199324 18.0885 0.158098C17.474 0.51552 17.2396 1.36513 17.5573 2.05654L21.8073 11.2499H9.69271L13.9427 2.05654ZM10.75 17.8124V23.4374C10.75 23.953 10.375 24.3749 9.91667 24.3749C9.45833 24.3749 9.08333 23.953 9.08333 23.4374V17.8124C9.08333 17.2968 9.45833 16.8749 9.91667 16.8749C10.375 16.8749 10.75 17.2968 10.75 17.8124ZM15.75 16.8749C16.2083 16.8749 16.5833 17.2968 16.5833 17.8124V23.4374C16.5833 23.953 16.2083 24.3749 15.75 24.3749C15.2917 24.3749 14.9167 23.953 14.9167 23.4374V17.8124C14.9167 17.2968 15.2917 16.8749 15.75 16.8749ZM22.4167 17.8124V23.4374C22.4167 23.953 22.0417 24.3749 21.5833 24.3749C21.125 24.3749 20.75 23.953 20.75 23.4374V17.8124C20.75 17.2968 21.125 16.8749 21.5833 16.8749C22.0417 16.8749 22.4167 17.2968 22.4167 17.8124Z" fill="#BBAF74"/>
</svg>
