<svg width="30" height="27" viewBox="0 0 30 27" fill="none" xmlns="http://www.w3.org/2000/svg">
<g clip-path="url(#clip0_836_5354)">
<path d="M0 1.24619C0 0.555593 0.557292 0 1.25 0H3.61979C4.76562 0 5.78125 0.664634 6.25521 1.66159H27.6615C29.0312 1.66159 30.0312 2.9597 29.6719 4.27858L27.5365 12.1867C27.0938 13.8171 25.6094 14.9543 23.9167 14.9543H8.89062L9.17188 16.4341C9.28646 17.0209 9.80208 17.4466 10.401 17.4466H25.4167C26.1094 17.4466 26.6667 18.0022 26.6667 18.6928C26.6667 19.3834 26.1094 19.939 25.4167 19.939H10.401C8.59896 19.939 7.05208 18.6617 6.71875 16.9014L4.03125 2.82989C3.99479 2.63257 3.82292 2.49238 3.61979 2.49238H1.25C0.557292 2.49238 0 1.93679 0 1.24619ZM6.66667 24.093C6.66667 23.7657 6.73133 23.4416 6.85697 23.1392C6.9826 22.8368 7.16675 22.562 7.3989 22.3306C7.63105 22.0992 7.90664 21.9156 8.20996 21.7903C8.51327 21.6651 8.83836 21.6006 9.16667 21.6006C9.49497 21.6006 9.82006 21.6651 10.1234 21.7903C10.4267 21.9156 10.7023 22.0992 10.9344 22.3306C11.1666 22.562 11.3507 22.8368 11.4764 23.1392C11.602 23.4416 11.6667 23.7657 11.6667 24.093C11.6667 24.4203 11.602 24.7444 11.4764 25.0468C11.3507 25.3492 11.1666 25.6239 10.9344 25.8554C10.7023 26.0868 10.4267 26.2704 10.1234 26.3956C9.82006 26.5209 9.49497 26.5854 9.16667 26.5854C8.83836 26.5854 8.51327 26.5209 8.20996 26.3956C7.90664 26.2704 7.63105 26.0868 7.3989 25.8554C7.16675 25.6239 6.9826 25.3492 6.85697 25.0468C6.73133 24.7444 6.66667 24.4203 6.66667 24.093ZM24.1667 21.6006C24.8297 21.6006 25.4656 21.8632 25.9344 22.3306C26.4033 22.798 26.6667 23.432 26.6667 24.093C26.6667 24.754 26.4033 25.388 25.9344 25.8554C25.4656 26.3228 24.8297 26.5854 24.1667 26.5854C23.5036 26.5854 22.8677 26.3228 22.3989 25.8554C21.9301 25.388 21.6667 24.754 21.6667 24.093C21.6667 23.432 21.9301 22.798 22.3989 22.3306C22.8677 21.8632 23.5036 21.6006 24.1667 21.6006Z" fill="#BBAF74"/>
</g>
<defs>
<clipPath id="clip0_836_5354">
<rect width="30" height="26.5854" fill="white"/>
</clipPath>
</defs>
</svg>
