<svg width="30" height="30" viewBox="0 0 30 30" fill="none" xmlns="http://www.w3.org/2000/svg">
<g clip-path="url(#clip0_341_8321)">
<path d="M30 15C30 18.9782 28.4196 22.7936 25.6066 25.6066C22.7936 28.4196 18.9782 30 15 30C11.0218 30 7.20644 28.4196 4.3934 25.6066C1.58035 22.7936 0 18.9782 0 15C0 11.0218 1.58035 7.20644 4.3934 4.3934C7.20644 1.58035 11.0218 0 15 0C18.9782 0 22.7936 1.58035 25.6066 4.3934C28.4196 7.20644 30 11.0218 30 15ZM14.8463 15.7762C16.5713 15.7762 17.7244 16.7888 17.7356 18.2475C17.7581 19.7306 16.5825 20.7975 14.7581 20.7863C13.1437 20.775 11.9794 19.9069 11.8706 18.7875H9.57C9.65812 20.9944 11.5387 22.8075 14.7337 22.8075C17.8331 22.8075 20.2725 21.0506 20.2275 18.315C20.1844 15.9187 18.2944 14.8538 16.9762 14.7225V14.5913C18.0956 14.4038 19.7981 13.2056 19.755 11.0738C19.6987 8.86687 17.7994 7.185 14.8106 7.2075C11.67 7.21875 9.95438 9.0525 9.88875 11.1825H12.2287C12.2962 10.14 13.2731 9.20625 14.7562 9.20625C16.2281 9.20625 17.2838 10.1175 17.2838 11.4469C17.295 12.7875 16.2281 13.7662 14.7675 13.7662H13.1962V15.7762H14.8444H14.8463Z" fill="#BBAF74"/>
</g>
<defs>
<clipPath id="clip0_341_8321">
<rect width="30" height="30" fill="white"/>
</clipPath>
</defs>
</svg>
