<svg width="30" height="30" viewBox="0 0 30 30" fill="none" xmlns="http://www.w3.org/2000/svg">
<path d="M4.02371 5.35121C3.93655 5.26405 3.86741 5.16057 3.82023 5.04668C3.77306 4.9328 3.74878 4.81073 3.74878 4.68746C3.74878 4.56419 3.77306 4.44213 3.82023 4.32824C3.86741 4.21436 3.93655 4.11088 4.02371 4.02371C4.11088 3.93655 4.21436 3.86741 4.32824 3.82023C4.44213 3.77306 4.56419 3.74878 4.68746 3.74878C4.81073 3.74878 4.9328 3.77306 5.04668 3.82023C5.16057 3.86741 5.26405 3.93655 5.35121 4.02371L15 13.6743L24.6487 4.02371C24.7359 3.93655 24.8394 3.86741 24.9532 3.82023C25.0671 3.77306 25.1892 3.74878 25.3125 3.74878C25.4357 3.74878 25.5578 3.77306 25.6717 3.82023C25.7856 3.86741 25.889 3.93655 25.9762 4.02371C26.0634 4.11088 26.1325 4.21436 26.1797 4.32824C26.2269 4.44213 26.2511 4.56419 26.2511 4.68746C26.2511 4.81073 26.2269 4.9328 26.1797 5.04668C26.1325 5.16057 26.0634 5.26405 25.9762 5.35121L16.3256 15L25.9762 24.6487C26.0634 24.7359 26.1325 24.8394 26.1797 24.9532C26.2269 25.0671 26.2511 25.1892 26.2511 25.3125C26.2511 25.4357 26.2269 25.5578 26.1797 25.6717C26.1325 25.7856 26.0634 25.889 25.9762 25.9762C25.889 26.0634 25.7856 26.1325 25.6717 26.1797C25.5578 26.2269 25.4357 26.2511 25.3125 26.2511C25.1892 26.2511 25.0671 26.2269 24.9532 26.1797C24.8394 26.1325 24.7359 26.0634 24.6487 25.9762L15 16.3256L5.35121 25.9762C5.26405 26.0634 5.16057 26.1325 5.04668 26.1797C4.9328 26.2269 4.81073 26.2511 4.68746 26.2511C4.56419 26.2511 4.44213 26.2269 4.32824 26.1797C4.21436 26.1325 4.11088 26.0634 4.02371 25.9762C3.93655 25.889 3.86741 25.7856 3.82023 25.6717C3.77306 25.5578 3.74878 25.4357 3.74878 25.3125C3.74878 25.1892 3.77306 25.0671 3.82023 24.9532C3.86741 24.8394 3.93655 24.7359 4.02371 24.6487L13.6743 15L4.02371 5.35121Z" fill="#BBAF74"/>
</svg>
