<svg width="141" height="109" viewBox="0 0 141 109" fill="none" xmlns="http://www.w3.org/2000/svg">
<path d="M110.093 41.7555C109.146 40.6179 107.735 39.4557 107.08 38.1339C106.944 37.8597 106.842 37.4545 107.047 37.2131C108.286 37.6101 109.294 38.8336 110.249 39.6603C111.266 40.5401 112.233 41.4732 113.151 42.4553C114.069 43.4416 114.937 44.4769 115.744 45.5532C116.316 46.3144 116.839 47.5134 117.571 48.1231C117.88 48.3769 118.18 48.6347 118.485 48.8966C117.386 45.0989 115.205 41.6942 112.863 38.4899C111.118 36.1041 109.241 33.7633 106.899 31.9177C105.117 30.5099 103.203 29.2413 101.368 27.8991C96.0254 23.995 89.7778 20.9217 83.6248 18.4868C82.9457 18.2167 82.2419 17.9548 81.5093 17.963C80.5709 17.9712 79.8054 18.4254 79.0317 18.8878C78.7641 19.0474 77.9698 19.7554 77.6323 19.7104C79.9742 20.0132 82.6947 19.8782 84.9501 20.5493C85.374 20.6762 85.7773 20.8726 86.1683 21.0731C88.7859 22.4358 93.1609 25.0672 94.2433 28.0095C94.2433 28.0136 95.0171 30.1089 95.0171 30.2153C95.0171 30.3217 93.9511 30.2685 93.9511 30.2685L92.4324 28.7462L90.1935 26.2008L88.115 25.4641C91.2636 28.4556 90.7244 34.328 90.5433 38.1912C90.5104 38.8787 90.4692 39.6644 90.1482 40.2905C89.9959 40.5933 89.0781 41.7105 89.074 40.6588C89.074 40.5811 89.0493 38.5063 89.0493 38.5063C88.9094 38.3794 88.8312 38.273 88.6336 38.2853C88.3002 39.7503 87.7611 40.978 86.6581 42.0625C83.3902 45.279 78.4719 47.1615 74.4303 44.1823C73.1503 43.241 72.1008 42.0379 71.076 40.8307C69.8948 39.4434 68.1909 36.7466 70.2652 35.2774C71.4176 34.4631 73.8994 34.3117 75.0394 35.0851C75.3975 35.3306 75.6733 35.6744 75.9655 35.9895C76.6569 36.7261 77.4924 37.3236 78.1591 38.0807C78.5296 38.5022 79.3897 41.821 79.8383 41.5918C79.9371 41.5427 80.7068 41.1499 80.7068 41.1499H82.0649L82.0114 40.6261C82.0114 40.6261 81.106 40.0491 81.0772 39.9713C81.0525 39.8935 80.6244 38.7395 80.6244 38.6331C80.6244 38.5267 80.0647 36.9266 80.0647 36.9266L79.1304 36.0345L79.3692 35.5885L80.0894 35.9281C80.0894 35.9281 81.0772 36.6361 81.2089 36.7138C81.3406 36.7916 82.1678 37.475 82.1678 37.475C82.1678 37.475 83.2091 38.1584 83.2873 38.2116C83.3655 38.2648 84.0611 38.9482 84.0611 38.9482L84.3533 40.4174L84.7813 40.3396V39.472L85.8761 39.0505L86.2506 37.9497V37.4259L85.6127 37.3727L84.8924 37.1108L83.987 36.2964C83.526 35.5721 83.0445 35.0565 82.8716 34.193C82.7029 33.3418 82.8716 32.4579 82.6 31.6148C82.0691 29.9779 80.1429 29.1104 79.505 27.5103C78.7847 27.7435 78.5542 27.3016 78.1221 26.8923C76.2577 25.1327 73.9652 21.4619 73.9652 21.4619L72.924 19.4157C72.924 19.4157 72.8458 19.8618 72.8458 19.9396C72.8458 20.0173 72.8705 21.1713 72.8993 21.2777C72.924 21.3841 73.3273 22.6691 73.3273 22.6691L74.5785 25.0304C74.5785 25.0304 75.6733 26.4749 75.8585 26.6304C76.8956 27.5062 76.056 28.1773 75.1217 28.1937C73.6483 28.2182 72.2737 27.6658 71.0348 26.9169L70.1294 26.3399C70.1294 26.3399 70.3681 27.3098 70.3681 27.4694C70.3681 27.629 69.5408 27.5471 69.5408 27.5471L67.8081 27.4939L65.5445 26.9947L66.2112 27.6003L66.4499 27.6535C66.4499 27.6535 66.878 27.8909 66.9027 27.9686C66.9274 28.0464 66.2894 28.3901 66.2894 28.3901L64.9847 28.5988L62.1079 28.8607L62.3754 29.36L63.2027 29.7529L62.7211 30.3831C60.4287 30.514 59.0417 32.376 59.0417 32.376L59.017 33.0594L59.9512 33.1658L60.0583 33.5873C58.0868 33.9802 57.0991 35.7399 57.0991 35.7399C57.0991 35.7399 56.885 36.5788 56.885 36.6565C56.885 36.7343 57.63 36.6811 57.63 36.6811C59.1281 37.1926 57.7864 37.5732 57.3872 38.2075C57.3336 38.2935 57.2308 38.7559 57.2308 38.7559C57.7123 40.6465 64.7748 46.0279 64.7748 46.0279C58.2967 45.2913 55.0741 38.7559 55.0741 38.7559L54.6749 38.8868C54.4609 38.9564 54.1275 40.4665 54.004 40.7079C52.3084 37.8392 52.4936 33.0349 53.5678 29.9902C54.0123 28.7216 55.0288 27.2075 54.6831 25.8243C52.7117 25.8775 50.481 29.2127 49.1887 30.4895C49.4603 28.8812 50.4892 27.498 51.5799 26.2744C54.1357 23.4057 57.0867 21.7033 60.4863 19.9927C60.9843 19.7431 62.3795 20.0623 62.9228 20.0787C63.82 20.1114 64.7255 20.1319 65.6227 20.181C65.9314 19.2643 63.7171 18.1185 62.9722 17.8689C60.5233 17.0463 59.1281 19.7759 56.9262 20.3365C52.2919 21.5192 46.9168 25.0304 46.9168 25.0304C41.7721 27.7067 36.0678 32.3515 31.7257 37.209C27.3795 42.0666 25.9678 48.8352 25.9678 48.8352C28.9517 42.5617 36.4958 37.4177 36.4958 37.4177L36.8415 37.8392C31.1907 43.0364 27.0338 52.6165 27.0338 52.6165C24.6878 58.2679 24.6714 65.1511 26.33 70.9745C27.1202 73.7491 28.1615 76.4827 29.6143 78.9913C29.9889 79.6379 30.3881 80.2722 30.8326 80.8696C30.9561 81.0374 31.2277 81.2625 31.3018 81.4589C29.2233 75.9466 30.0218 66.4975 30.0218 66.4975C30.4539 64.3573 31.1042 62.1761 32.2854 60.31C32.6888 59.6716 33.3226 58.6444 34.0675 58.358C34.0511 59.2255 33.6436 60.2077 33.4913 61.0793C33.3308 62.0206 33.2156 62.97 33.1497 63.9194C33.0263 65.7404 33.0756 67.5738 33.3061 69.3826C33.5078 70.9581 33.7424 72.7055 34.4174 74.1665C34.5161 74.3834 35.1664 75.0177 35.1664 75.21C35.1664 75.5005 35.5657 75.2878 35.5657 75.2878V70.9581L35.9114 68.2286C36.6892 68.3145 36.6563 68.3963 36.8004 69.1534C36.9197 69.7918 37.0802 70.422 37.2778 71.0441C37.6688 72.2799 38.2121 73.4667 38.8788 74.5839C40.1752 76.761 41.9409 78.6803 43.83 80.3294C44.7519 81.1315 45.6409 81.9827 46.6122 82.7275C47.3613 83.3005 48.1556 83.8243 48.9829 84.2867C49.4109 84.5281 49.8513 84.7491 50.2999 84.9578C50.5921 85.0929 51.2342 85.2238 51.4523 85.4489C48.596 82.5025 46.1307 79.1959 44.114 75.6397C42.299 72.4354 40.8461 69.0306 39.8048 65.5072C38.6812 61.7014 38.4343 57.8587 38.5701 53.9015C38.6319 52.0476 38.8088 50.1979 39.1052 48.3646C39.2533 47.4275 39.4344 46.4985 39.6443 45.5696C39.6567 45.5164 40.1506 43.4948 40.4551 43.773C40.6239 43.9285 40.805 44.1004 40.842 44.3255C40.8543 44.4114 40.8461 44.4974 40.842 44.5833C40.5004 48.2541 40.381 51.929 40.5292 55.612C40.5909 57.1671 40.6156 58.7836 40.879 60.3263C41.3482 63.1009 42.0808 65.7732 43.225 68.3554C44.4432 71.1054 45.501 73.8923 47.0938 76.4622C47.8963 77.7554 48.7853 78.8358 49.8842 79.8875C50.4069 80.3867 51.2506 80.8574 51.6745 81.4303C50.0488 79.2245 47.1967 73.348 47.1967 73.348C45.5051 70.0619 44.8219 66.0637 44.3239 62.4461C43.8917 59.3196 43.8506 56.3077 44.0687 53.173C44.3074 49.7109 44.9701 46.2857 45.9537 42.9546C46.5546 40.9248 47.3284 38.8418 48.917 37.4218C48.0609 40.4828 47.4436 43.5971 46.9579 46.7359C46.6575 50.8732 47.0485 55.1128 47.3736 59.2419C47.6823 63.1705 48.7277 66.5875 50.8679 69.9391C51.6252 71.1259 52.5142 72.6319 53.6254 73.524C53.4608 72.108 52.8475 70.6389 52.5471 69.2271C52.2343 67.7579 51.9791 66.2724 51.7816 64.7828C51.3947 61.8855 51.2218 58.9145 51.2218 56.0253C51.2218 52.6819 51.3535 49.3426 51.4358 46.0033C51.7774 46.0852 51.868 46.5149 51.9009 46.8586C52.3289 51.4911 53.9917 55.9844 56.7369 59.7739C56.8274 59.8967 56.9221 60.0235 57.062 60.089C57.3913 60.2363 57.7493 59.9662 58.0004 59.7084C58.9676 58.6976 59.7784 57.5354 60.3916 56.2832C60.3587 57.83 60.5521 59.3319 60.9966 60.8215C61.0666 61.0507 61.0419 61.2717 61.2683 61.3371C62.0626 61.5745 63.5978 59.7289 63.9517 59.2378C64.709 58.1861 65.1658 56.9175 65.2152 55.6284C65.2482 54.8222 65.1082 53.9015 65.5568 53.1894C66.8286 57.8464 67.8781 62.0124 70.9278 65.9655C71.6316 66.8781 72.4095 67.7702 72.891 68.8219C73.3561 69.8409 73.5166 71.0563 73.5989 72.1612C73.7306 73.88 73.8829 75.8893 72.2325 76.986C71.183 77.6817 69.8166 77.7308 68.5695 77.5099C67.3266 77.2889 66.133 76.8265 64.8942 76.5809C62.4536 76.098 58.305 76.1799 57.7452 79.2655C57.5559 80.3131 57.8316 81.4016 58.3255 82.3469C58.5972 82.8708 58.9388 83.3537 59.3339 83.7956L58.4572 84.4668L62.68 85.9645L61.2559 82.3224L60.511 82.8912C60.1858 82.658 59.8977 82.4615 59.7455 82.3101C59.0787 81.6635 58.5684 80.7346 58.8071 79.8466C59.1075 78.7294 60.4739 78.1974 61.6428 78.3038C63.4331 78.4715 64.8777 79.646 66.4006 80.4604C70.7056 82.7603 78.0315 83.1981 79.4679 77.293C79.8836 75.5742 79.719 73.7777 79.4844 72.0262C79.1757 69.7345 78.6571 67.4919 78.2538 65.2207C77.9369 63.4447 77.7723 61.6441 77.764 59.8435C77.7599 58.9227 77.7928 57.9978 77.871 57.0812C77.9287 56.3568 78.3032 55.2846 78.1756 54.5849C78.4225 55.9394 78.6407 57.474 79.6902 58.4807C80.608 59.3647 81.5834 60.2159 82.6041 60.9811C83.2997 61.5049 83.2132 60.7683 83.2667 60.1381C83.3161 59.5283 83.3038 58.9104 83.349 58.3007C83.4231 57.3185 83.4972 56.3323 83.5631 55.346C83.6125 54.6463 83.5343 53.8237 83.81 53.1648C83.9335 52.8743 84.7031 52.2113 84.699 51.9658C84.7031 52.9807 84.1722 53.926 84.3162 54.9982C84.4356 55.8985 84.8719 56.7251 85.3534 57.4986C85.9131 58.403 86.5387 59.2664 87.226 60.0808C87.4483 60.3427 88.3496 58.8327 88.4813 58.6199C90.605 55.0923 91.4693 50.5703 91.5928 46.4985L92.5189 46.3594C92.5189 46.3594 92.8028 47.6198 92.9469 52.5183C93.0909 57.4167 92.5929 62.1761 92.5929 62.3889C92.5929 62.6017 91.8809 67.1482 91.8809 67.1482L90.6009 73.4462C90.6009 73.4462 93.1609 71.4164 95.5069 65.188C95.9102 64.1363 96.2477 63.0518 96.5234 61.9592C98.4249 54.4785 97.0914 46.6704 95.5233 39.2592C95.4204 38.7641 94.8689 37.2417 95.7085 38.0725C96.1695 38.5308 96.5029 39.2142 96.7951 39.7831C97.4042 40.9616 97.8487 42.2139 98.2808 43.4661C99.0011 45.5532 99.4785 47.718 99.7296 49.9074C100.503 56.6187 99.9477 63.547 97.8322 69.9801C97.2272 71.8175 96.5029 73.6181 95.6591 75.3614C95.2393 76.2331 94.7866 77.0925 94.3092 77.9355C94.0211 78.4429 92.9757 79.6174 93.0292 80.2108C93.0745 80.6527 93.5766 80.3049 93.7988 80.0594C96.2806 77.293 98.252 74.0764 99.5896 70.6266C100.96 67.0868 102.38 63.5101 103.034 59.7534C103.598 56.5205 103.784 53.1853 103.693 49.9401C103.668 49.0685 103.623 48.1968 103.553 47.3292C103.5 46.6663 103.257 45.8151 103.405 45.1644C104.524 45.2258 104.31 46.6581 104.434 47.4111C104.635 48.6388 104.825 49.8706 104.981 51.1064C105.294 53.57 105.479 56.0581 105.352 58.5421C105.055 64.2713 103.043 69.7673 100.244 74.7558C99.4991 76.0817 98.5525 77.2643 97.7499 78.5411C96.8362 79.9939 95.8814 81.4426 94.8648 82.8298C94.4244 83.4273 93.9635 84.0166 93.4367 84.5445C93.3255 84.655 92.7411 85.0642 92.7987 85.2156C92.8851 85.4489 93.4161 85.142 93.556 85.0806C94.8072 84.5281 95.8649 83.6156 96.9062 82.7603C98.1656 81.7249 99.3345 80.5832 100.553 79.4987C102.207 78.0173 103.956 76.5645 105.092 74.6657C105.932 73.258 106.397 71.6661 106.85 70.0946C106.99 69.6077 107.088 69.0184 107.368 68.5887C107.899 67.7702 108.097 68.6992 108.105 69.3048C108.109 69.6118 108.134 75.5947 108.484 75.5537C108.55 75.5456 108.599 75.5046 108.632 75.4433C110.278 72.5459 110.739 69.1207 110.595 65.8059C110.529 64.2754 110.34 62.7572 110.105 61.243C109.998 60.5555 109.669 59.6593 109.731 58.9718C109.78 58.403 110.068 58.448 110.636 58.5339C111.64 60.7356 112.789 62.9086 113.455 65.2576C114.18 67.8152 114.464 70.4916 114.274 73.1393C114.159 74.7639 113.867 76.3763 113.579 77.9805C113.365 79.1754 113.027 80.4072 113.048 81.6185C114.299 79.2 115.48 76.6423 116.328 74.0519C117.431 70.6798 118.11 67.1768 118.345 63.6411C118.761 57.3021 116.744 50.8936 113.147 45.676C112.208 44.3132 111.188 43.0119 110.126 41.7433L110.093 41.7555Z" fill="#B6AA73"/>
</svg>
