<svg width="228" height="228" viewBox="0 0 228 228" fill="none" xmlns="http://www.w3.org/2000/svg">
<path d="M207.08 88.7445C204.78 85.9645 201.35 83.1246 199.76 79.8946C199.43 79.2246 199.18 78.2346 199.68 77.6446C202.69 78.6146 205.14 81.6045 207.46 83.6245C209.93 85.7745 212.28 88.0545 214.51 90.4545C216.74 92.8645 218.85 95.3946 220.81 98.0246C222.2 99.8846 223.47 102.815 225.25 104.305C226 104.925 226.73 105.555 227.47 106.195C224.8 96.9146 219.5 88.5945 213.81 80.7645C209.57 74.9345 205.01 69.2145 199.32 64.7045C194.99 61.2645 190.34 58.1645 185.88 54.8845C172.9 45.3445 157.72 37.8345 142.77 31.8845C141.12 31.2245 139.41 30.5845 137.63 30.6045C135.35 30.6245 133.49 31.7345 131.61 32.8645C130.96 33.2545 129.03 34.9846 128.21 34.8746C133.9 35.6146 140.51 35.2845 145.99 36.9245C147.02 37.2345 148 37.7145 148.95 38.2045C155.31 41.5345 165.94 47.9646 168.57 55.1546C168.57 55.1646 170.45 60.2846 170.45 60.5446C170.45 60.8046 167.86 60.6745 167.86 60.6745L164.17 56.9545L158.73 50.7345L153.68 48.9346C161.33 56.2446 160.02 70.5946 159.58 80.0345C159.5 81.7145 159.4 83.6345 158.62 85.1645C158.25 85.9045 156.02 88.6345 156.01 86.0645C156.01 85.8745 155.95 80.8045 155.95 80.8045C155.61 80.4945 155.42 80.2345 154.94 80.2645C154.13 83.8445 152.82 86.8445 150.14 89.4945C142.2 97.3545 130.25 101.955 120.43 94.6746C117.32 92.3746 114.77 89.4345 112.28 86.4845C109.41 83.0945 105.27 76.5045 110.31 72.9145C113.11 70.9245 119.14 70.5545 121.91 72.4445C122.78 73.0445 123.45 73.8846 124.16 74.6546C125.84 76.4546 127.87 77.9145 129.49 79.7645C130.39 80.7945 132.48 88.9045 133.57 88.3445C133.81 88.2245 135.68 87.2645 135.68 87.2645H138.98L138.85 85.9845C138.85 85.9845 136.65 84.5745 136.58 84.3845C136.52 84.1945 135.48 81.3746 135.48 81.1146C135.48 80.8546 134.12 76.9445 134.12 76.9445L131.85 74.7645L132.43 73.6745L134.18 74.5046C134.18 74.5046 136.58 76.2345 136.9 76.4245C137.22 76.6145 139.23 78.2845 139.23 78.2845C139.23 78.2845 141.76 79.9546 141.95 80.0846C142.14 80.2146 143.83 81.8845 143.83 81.8845L144.54 85.4746L145.58 85.2845V83.1645L148.24 82.1345L149.15 79.4445V78.1645L147.6 78.0345L145.85 77.3946L143.65 75.4046C142.53 73.6346 141.36 72.3745 140.94 70.2645C140.53 68.1845 140.94 66.0245 140.28 63.9646C138.99 59.9646 134.31 57.8446 132.76 53.9346C131.01 54.5046 130.45 53.4245 129.4 52.4245C124.87 48.1245 119.3 39.1546 119.3 39.1546L116.77 34.1545C116.77 34.1545 116.58 35.2445 116.58 35.4345C116.58 35.6245 116.64 38.4445 116.71 38.7045C116.77 38.9645 117.75 42.1045 117.75 42.1045L120.79 47.8745C120.79 47.8745 123.45 51.4045 123.9 51.7845C126.42 53.9245 124.38 55.5645 122.11 55.6045C118.53 55.6645 115.19 54.3145 112.18 52.4845L109.98 51.0746C109.98 51.0746 110.56 53.4446 110.56 53.8346C110.56 54.2246 108.55 54.0245 108.55 54.0245L104.34 53.8946L98.84 52.6745L100.46 54.1546L101.04 54.2845C101.04 54.2845 102.08 54.8645 102.14 55.0545C102.2 55.2445 100.65 56.0846 100.65 56.0846L97.48 56.5945L90.49 57.2345L91.14 58.4545L93.15 59.4145L91.98 60.9545C86.41 61.2745 83.04 65.8246 83.04 65.8246L82.98 67.4945L85.25 67.7546L85.51 68.7845C80.72 69.7445 78.32 74.0446 78.32 74.0446C78.32 74.0446 77.8 76.0945 77.8 76.2845C77.8 76.4745 79.61 76.3445 79.61 76.3445C83.25 77.5945 79.99 78.5246 79.02 80.0746C78.89 80.2846 78.64 81.4145 78.64 81.4145C79.81 86.0345 96.97 99.1846 96.97 99.1846C81.23 97.3846 73.4 81.4145 73.4 81.4145L72.43 81.7345C71.91 81.9045 71.1 85.5946 70.8 86.1846C66.68 79.1746 67.13 67.4345 69.74 59.9945C70.82 56.8945 73.29 53.1945 72.45 49.8145C67.66 49.9445 62.24 58.0946 59.1 61.2146C59.76 57.2845 62.26 53.9045 64.91 50.9145C71.12 43.9045 78.29 39.7445 86.55 35.5645C87.76 34.9545 91.15 35.7345 92.47 35.7745C94.65 35.8545 96.85 35.9045 99.03 36.0245C99.78 33.7845 94.4 30.9846 92.59 30.3746C86.64 28.3646 83.25 35.0345 77.9 36.4045C66.64 39.2945 53.58 47.8745 53.58 47.8745C41.08 54.4145 27.22 65.7645 16.67 77.6345C6.10997 89.5045 2.67998 106.045 2.67998 106.045C9.92998 90.7145 28.26 78.1446 28.26 78.1446L29.1 79.1745C15.37 91.8745 5.26998 115.285 5.26998 115.285C-0.430024 129.095 -0.470024 145.915 3.55998 160.145C5.47998 166.925 8.00998 173.605 11.54 179.735C12.45 181.315 13.42 182.865 14.5 184.325C14.8 184.735 15.46 185.285 15.64 185.765C10.59 172.295 12.53 149.205 12.53 149.205C13.58 143.975 15.16 138.645 18.03 134.085C19.01 132.525 20.55 130.015 22.36 129.315C22.32 131.435 21.33 133.835 20.96 135.965C20.57 138.265 20.29 140.585 20.13 142.905C19.83 147.355 19.95 151.835 20.51 156.255C21 160.105 21.57 164.375 23.21 167.945C23.45 168.475 25.03 170.025 25.03 170.495C25.03 171.205 26 170.685 26 170.685V160.105L26.84 153.435C28.73 153.645 28.65 153.845 29 155.695C29.29 157.255 29.68 158.795 30.16 160.315C31.11 163.335 32.43 166.235 34.05 168.965C37.2 174.285 41.49 178.975 46.08 183.005C48.32 184.965 50.48 187.045 52.84 188.865C54.66 190.265 56.59 191.545 58.6 192.675C59.64 193.265 60.71 193.805 61.8 194.315C62.51 194.645 64.07 194.965 64.6 195.515C57.66 188.315 51.67 180.235 46.77 171.545C42.36 163.715 38.83 155.395 36.3 146.785C33.57 137.485 32.97 128.095 33.3 118.425C33.45 113.895 33.88 109.375 34.6 104.895C34.96 102.605 35.4 100.335 35.91 98.0646C35.94 97.9346 37.14 92.9945 37.88 93.6745C38.29 94.0545 38.73 94.4746 38.82 95.0246C38.85 95.2346 38.83 95.4446 38.82 95.6546C37.99 104.625 37.7 113.605 38.06 122.605C38.21 126.405 38.27 130.355 38.91 134.125C40.05 140.905 41.83 147.435 44.61 153.745C47.57 160.465 50.14 167.275 54.01 173.555C55.96 176.715 58.12 179.355 60.79 181.925C62.06 183.145 64.11 184.295 65.14 185.695C61.19 180.305 54.26 165.945 54.26 165.945C50.15 157.915 48.49 148.145 47.28 139.305C46.23 131.665 46.13 124.305 46.66 116.645C47.24 108.185 48.85 99.8145 51.24 91.6745C52.7 86.7145 54.58 81.6246 58.44 78.1546C56.36 85.6346 54.86 93.2446 53.68 100.915C52.95 111.025 53.9 121.385 54.69 131.475C55.44 141.075 57.98 149.425 63.18 157.615C65.02 160.515 67.18 164.195 69.88 166.375C69.48 162.915 67.99 159.325 67.26 155.875C66.5 152.285 65.88 148.655 65.4 145.015C64.46 137.935 64.04 130.675 64.04 123.615C64.04 115.445 64.36 107.285 64.56 99.1245C65.39 99.3245 65.61 100.375 65.69 101.215C66.73 112.535 70.77 123.515 77.44 132.775C77.66 133.075 77.89 133.385 78.23 133.545C79.03 133.905 79.9 133.245 80.51 132.615C82.86 130.145 84.83 127.305 86.32 124.245C86.24 128.025 86.71 131.695 87.79 135.335C87.96 135.895 87.9 136.435 88.45 136.595C90.38 137.175 94.11 132.665 94.97 131.465C96.81 128.895 97.92 125.795 98.04 122.645C98.12 120.675 97.78 118.425 98.87 116.685C101.96 128.065 104.51 138.245 111.92 147.905C113.63 150.135 115.52 152.315 116.69 154.885C117.82 157.375 118.21 160.345 118.41 163.045C118.73 167.245 119.1 172.155 115.09 174.835C112.54 176.535 109.22 176.655 106.19 176.115C103.17 175.575 100.27 174.445 97.26 173.845C91.33 172.665 81.25 172.865 79.89 180.405C79.43 182.965 80.1 185.625 81.3 187.935C81.96 189.215 82.79 190.395 83.75 191.475L81.62 193.115L91.88 196.775L88.42 187.875L86.61 189.265C85.82 188.695 85.12 188.215 84.75 187.845C83.13 186.265 81.89 183.995 82.47 181.825C83.2 179.095 86.52 177.795 89.36 178.055C93.71 178.465 97.22 181.335 100.92 183.325C111.38 188.945 129.18 190.015 132.67 175.585C133.68 171.385 133.28 166.995 132.71 162.715C131.96 157.115 130.7 151.635 129.72 146.085C128.95 141.745 128.55 137.345 128.53 132.945C128.52 130.695 128.6 128.435 128.79 126.195C128.93 124.425 129.84 121.805 129.53 120.095C130.13 123.405 130.66 127.155 133.21 129.615C135.44 131.775 137.81 133.855 140.29 135.725C141.98 137.005 141.77 135.205 141.9 133.665C142.02 132.175 141.99 130.665 142.1 129.175C142.28 126.775 142.46 124.365 142.62 121.955C142.74 120.245 142.55 118.235 143.22 116.625C143.52 115.915 145.39 114.295 145.38 113.695C145.39 116.175 144.1 118.485 144.45 121.105C144.74 123.305 145.8 125.325 146.97 127.215C148.33 129.425 149.85 131.535 151.52 133.525C152.06 134.165 154.25 130.475 154.57 129.955C159.73 121.335 161.83 110.285 162.13 100.335L164.38 99.9946C164.38 99.9946 165.07 103.075 165.42 115.045C165.77 127.015 164.56 138.645 164.56 139.165C164.56 139.685 162.83 150.795 162.83 150.795L159.72 166.185C159.72 166.185 165.94 161.225 171.64 146.005C172.62 143.435 173.44 140.785 174.11 138.115C178.73 119.835 175.49 100.755 171.68 82.6446C171.43 81.4346 170.09 77.7145 172.13 79.7445C173.25 80.8645 174.06 82.5345 174.77 83.9245C176.25 86.8045 177.33 89.8645 178.38 92.9245C180.13 98.0245 181.29 103.315 181.9 108.665C183.78 125.065 182.43 141.995 177.29 157.715C175.82 162.205 174.06 166.605 172.01 170.865C170.99 172.995 169.89 175.095 168.73 177.155C168.03 178.395 165.49 181.265 165.62 182.715C165.73 183.795 166.95 182.945 167.49 182.345C173.52 175.585 178.31 167.725 181.56 159.295C184.89 150.645 188.34 141.905 189.93 132.725C191.3 124.825 191.75 116.675 191.53 108.745C191.47 106.615 191.36 104.485 191.19 102.365C191.06 100.745 190.47 98.6646 190.83 97.0746C193.55 97.2246 193.03 100.725 193.33 102.565C193.82 105.565 194.28 108.575 194.66 111.595C195.42 117.615 195.87 123.695 195.56 129.765C194.84 143.765 189.95 157.195 183.15 169.385C181.34 172.625 179.04 175.515 177.09 178.635C174.87 182.185 172.55 185.725 170.08 189.115C169.01 190.575 167.89 192.015 166.61 193.305C166.34 193.575 164.92 194.575 165.06 194.945C165.27 195.515 166.56 194.765 166.9 194.615C169.94 193.265 172.51 191.035 175.04 188.945C178.1 186.415 180.94 183.625 183.9 180.975C187.92 177.355 192.17 173.805 194.93 169.165C196.97 165.725 198.1 161.835 199.2 157.995C199.54 156.805 199.78 155.365 200.46 154.315C201.75 152.315 202.23 154.585 202.25 156.065C202.26 156.815 202.32 171.435 203.17 171.335C203.33 171.315 203.45 171.215 203.53 171.065C207.53 163.985 208.65 155.615 208.3 147.515C208.14 143.775 207.68 140.065 207.11 136.365C206.85 134.685 206.05 132.495 206.2 130.815C206.32 129.425 207.02 129.535 208.4 129.745C210.84 135.125 213.63 140.435 215.25 146.175C217.01 152.425 217.7 158.965 217.24 165.435C216.96 169.405 216.25 173.345 215.55 177.265C215.03 180.185 214.21 183.195 214.26 186.155C217.3 180.245 220.17 173.995 222.23 167.665C224.91 159.425 226.56 150.865 227.13 142.225C228.14 126.735 223.24 111.075 214.5 98.3246C212.22 94.9946 209.74 91.8145 207.16 88.7146L207.08 88.7445Z" fill="#605541"/>
</svg>
