<svg width="30" height="30" viewBox="0 0 30 30" fill="none" xmlns="http://www.w3.org/2000/svg">
<g clip-path="url(#clip0_268_6320)">
<path d="M26.6332 1.90237C27.1378 1.90237 27.6216 2.1028 27.9784 2.45956C28.3352 2.81633 28.5356 3.3002 28.5356 3.80474V19.0237C28.5356 19.5283 28.3352 20.0121 27.9784 20.3689C27.6216 20.7257 27.1378 20.9261 26.6332 20.9261H8.39707C7.38807 20.9263 6.42048 21.3273 5.70712 22.0409L1.90237 25.8456V3.80474C1.90237 3.3002 2.1028 2.81633 2.45956 2.45956C2.81633 2.1028 3.3002 1.90237 3.80474 1.90237H26.6332ZM3.80474 0C2.79566 0 1.82791 0.400856 1.11438 1.11438C0.400856 1.82791 0 2.79566 0 3.80474L0 28.1418C3.99781e-05 28.33 0.0559156 28.514 0.160555 28.6704C0.265194 28.8269 0.413893 28.9487 0.587832 29.0206C0.76177 29.0925 0.953129 29.1112 1.13769 29.0743C1.32225 29.0374 1.49171 28.9466 1.62463 28.8133L7.05209 23.3859C7.40878 23.0291 7.89257 22.8286 8.39707 22.8285H26.6332C27.6423 22.8285 28.61 22.4276 29.3236 21.7141C30.0371 21.0006 30.438 20.0328 30.438 19.0237V3.80474C30.438 2.79566 30.0371 1.82791 29.3236 1.11438C28.61 0.400856 27.6423 0 26.6332 0L3.80474 0Z" fill="#BBAF74"/>
</g>
<defs>
<clipPath id="clip0_268_6320">
<rect width="30" height="30" fill="white"/>
</clipPath>
</defs>
</svg>
