<svg width="30" height="30" viewBox="0 0 30 30" fill="none" xmlns="http://www.w3.org/2000/svg">
<g clip-path="url(#clip0_341_8303)">
<path d="M15 2.8125C18.2323 2.8125 21.3323 4.09654 23.6179 6.38214C25.9035 8.66774 27.1875 11.7677 27.1875 15C27.1875 18.2323 25.9035 21.3323 23.6179 23.6179C21.3323 25.9035 18.2323 27.1875 15 27.1875C11.7677 27.1875 8.66774 25.9035 6.38214 23.6179C4.09654 21.3323 2.8125 18.2323 2.8125 15C2.8125 11.7677 4.09654 8.66774 6.38214 6.38214C8.66774 4.09654 11.7677 2.8125 15 2.8125ZM15 30C18.9782 30 22.7936 28.4196 25.6066 25.6066C28.4196 22.7936 30 18.9782 30 15C30 11.0218 28.4196 7.20644 25.6066 4.3934C22.7936 1.58035 18.9782 0 15 0C11.0218 0 7.20644 1.58035 4.3934 4.3934C1.58035 7.20644 0 11.0218 0 15C0 18.9782 1.58035 22.7936 4.3934 25.6066C7.20644 28.4196 11.0218 30 15 30ZM21.6211 12.2461C22.1719 11.6953 22.1719 10.8047 21.6211 10.2598C21.0703 9.71484 20.1797 9.70898 19.6348 10.2598L13.1309 16.7637L10.377 14.0098C9.82617 13.459 8.93555 13.459 8.39062 14.0098C7.8457 14.5605 7.83984 15.4512 8.39062 15.9961L12.1406 19.7461C12.6914 20.2969 13.582 20.2969 14.127 19.7461L21.6211 12.2461Z" fill="#BBAF74"/>
</g>
<defs>
<clipPath id="clip0_341_8303">
<rect width="30" height="30" fill="white"/>
</clipPath>
</defs>
</svg>
