<svg width="30" height="27" viewBox="0 0 30 27" fill="none" xmlns="http://www.w3.org/2000/svg">
<path d="M6.83886 0.568761C7.10253 0.214736 7.52441 0 7.96973 0H22.0323C22.4776 0 22.8995 0.208932 23.1632 0.568761L29.7257 9.39036C30.1241 9.92429 30.0831 10.6614 29.6378 11.1547L16.044 26.0121C15.7803 26.3023 15.3995 26.4706 15.001 26.4706C14.6026 26.4706 14.2276 26.3023 13.958 26.0121L0.36422 11.1547C-0.0869536 10.6614 -0.12211 9.92429 0.276329 9.39036L6.83886 0.568761ZM9.09473 2.87863C8.90137 3.02372 8.84864 3.28488 8.97169 3.48801L12.335 9.03633L3.70994 9.75018C3.4697 9.7676 3.2822 9.97072 3.2822 10.2145C3.2822 10.4582 3.4697 10.6556 3.70994 10.6788L14.96 11.6074C14.9834 11.6074 15.0127 11.6074 15.0362 11.6074L26.2862 10.6788C26.5265 10.6614 26.714 10.4582 26.714 10.2145C26.714 9.97072 26.5265 9.7734 26.2862 9.75018L17.667 9.04214L21.0303 3.49382C21.1534 3.29069 21.1007 3.02372 20.9073 2.88443C20.7139 2.74514 20.4444 2.76836 20.2803 2.94247L15.001 8.60106L9.72169 2.93666C9.55763 2.76255 9.28809 2.73934 9.09473 2.87863Z" fill="#BBAF74"/>
</svg>
