<svg width="30" height="30" viewBox="0 0 30 30" fill="none" xmlns="http://www.w3.org/2000/svg">
<path fill-rule="evenodd" clip-rule="evenodd" d="M15.6637 3.08622C15.751 3.1733 15.8203 3.27676 15.8676 3.39065C15.9148 3.50455 15.9391 3.62665 15.9391 3.74997C15.9391 3.87328 15.9148 3.99538 15.8676 4.10928C15.8203 4.22318 15.751 4.32663 15.6637 4.41372L5.07559 15L15.6637 25.5862C15.8398 25.7623 15.9387 26.001 15.9387 26.25C15.9387 26.4989 15.8398 26.7377 15.6637 26.9137C15.4877 27.0898 15.2489 27.1887 15 27.1887C14.751 27.1887 14.5123 27.0898 14.3362 26.9137L3.08622 15.6637C2.99891 15.5766 2.92964 15.4732 2.88238 15.3593C2.83512 15.2454 2.81079 15.1233 2.81079 15C2.81079 14.8767 2.83512 14.7546 2.88238 14.6407C2.92964 14.5268 2.99891 14.4233 3.08622 14.3362L14.3362 3.08622C14.4233 2.99891 14.5268 2.92964 14.6407 2.88238C14.7546 2.83512 14.8767 2.81079 15 2.81079C15.1233 2.81079 15.2454 2.83512 15.3593 2.88238C15.4732 2.92964 15.5766 2.99891 15.6637 3.08622Z" fill="#BBAF74"/>
<path fill-rule="evenodd" clip-rule="evenodd" d="M23.1637 3.08622C23.251 3.1733 23.3203 3.27676 23.3676 3.39065C23.4148 3.50455 23.4391 3.62665 23.4391 3.74997C23.4391 3.87328 23.4148 3.99538 23.3676 4.10928C23.3203 4.22318 23.251 4.32663 23.1637 4.41372L12.5756 15L23.1637 25.5862C23.2509 25.6734 23.32 25.7769 23.3672 25.8907C23.4144 26.0046 23.4387 26.1267 23.4387 26.25C23.4387 26.3732 23.4144 26.4953 23.3672 26.6092C23.32 26.7231 23.2509 26.8266 23.1637 26.9137C23.0766 27.0009 22.9731 27.07 22.8592 27.1172C22.7453 27.1644 22.6232 27.1887 22.5 27.1887C22.3767 27.1887 22.2546 27.1644 22.1407 27.1172C22.0269 27.07 21.9234 27.0009 21.8362 26.9137L10.5862 15.6637C10.4989 15.5766 10.4296 15.4732 10.3824 15.3593C10.3351 15.2454 10.3108 15.1233 10.3108 15C10.3108 14.8767 10.3351 14.7546 10.3824 14.6407C10.4296 14.5268 10.4989 14.4233 10.5862 14.3362L21.8362 3.08622C21.9233 2.99891 22.0268 2.92964 22.1407 2.88238C22.2546 2.83512 22.3767 2.81079 22.5 2.81079C22.6233 2.81079 22.7454 2.83512 22.8593 2.88238C22.9732 2.92964 23.0766 2.99891 23.1637 3.08622Z" fill="#BBAF74"/>
</svg>
