<svg width="30" height="27" viewBox="0 0 30 27" fill="none" xmlns="http://www.w3.org/2000/svg">
<path d="M7.5 0.189453C11.6438 0.189453 15 3.51766 15 7.6234C15 3.51766 18.3563 0.189453 22.5 0.189453C26.6437 0.189453 30 3.51766 30 7.6234C30 13.8114 23.9363 15.9942 15.735 25.8441C15.6447 25.9523 15.5322 26.0393 15.4052 26.0989C15.2783 26.1586 15.14 26.1895 15 26.1895C14.86 26.1895 14.7217 26.1586 14.5948 26.0989C14.4678 26.0393 14.3553 25.9523 14.265 25.8441C6.06375 15.9942 0 13.8114 0 7.6234C0 3.51766 3.35625 0.189453 7.5 0.189453Z" fill="#160c0c"/>
</svg>
