<svg width="30" height="30" viewBox="0 0 30 30" fill="none" xmlns="http://www.w3.org/2000/svg">
<path d="M15 11.6925L13.3237 8.33813C12.9075 7.5075 12.1856 6.31313 11.1637 5.3475C10.1587 4.39687 8.955 3.75 7.5 3.75C4.3575 3.75 1.875 6.23625 1.875 9.225C1.875 11.4956 2.91375 13.0988 5.3775 15.5437C6.00938 16.17 6.72937 16.8469 7.52625 17.5931C9.60375 19.5431 12.1875 21.9694 15 25.2131C17.8125 21.9694 20.3962 19.5431 22.4738 17.5931C23.2706 16.8469 23.9925 16.1681 24.6225 15.5437C27.0863 13.0988 28.125 11.4956 28.125 9.225C28.125 6.23625 25.6425 3.75 22.5 3.75C21.0431 3.75 19.8412 4.39687 18.8362 5.3475C17.8144 6.31313 17.0925 7.5075 16.6763 8.33813L15 11.6925ZM15.735 27.24C15.6447 27.347 15.5322 27.4329 15.4052 27.4919C15.2783 27.5509 15.14 27.5814 15 27.5814C14.86 27.5814 14.7217 27.5509 14.5948 27.4919C14.4678 27.4329 14.3553 27.347 14.265 27.24C11.2631 23.6737 8.54625 21.1238 6.30937 19.0256C2.4375 15.39 0 13.1044 0 9.225C0 5.16563 3.35625 1.875 7.5 1.875C10.5 1.875 12.5981 3.84375 13.8825 5.64C14.37 6.32437 14.7413 6.9825 15 7.5C15.3247 6.8525 15.6983 6.2307 16.1175 5.64C17.4019 3.84187 19.5 1.875 22.5 1.875C26.6437 1.875 30 5.16563 30 9.225C30 13.1044 27.5625 15.39 23.6906 19.0256C21.4538 21.1256 18.7369 23.6775 15.735 27.24Z" fill="#BBAF74"/>
</svg>
