<svg width="30" height="30" viewBox="0 0 30 30" fill="none" xmlns="http://www.w3.org/2000/svg">
<path fill-rule="evenodd" clip-rule="evenodd" d="M21.289 3.08622C21.3763 3.1733 21.4455 3.27676 21.4928 3.39065C21.5401 3.50455 21.5644 3.62665 21.5644 3.74997C21.5644 3.87328 21.5401 3.99538 21.4928 4.10928C21.4455 4.22318 21.3763 4.32663 21.289 4.41372L10.7008 15L21.289 25.5862C21.465 25.7623 21.5639 26.001 21.5639 26.25C21.5639 26.4989 21.465 26.7377 21.289 26.9137C21.1129 27.0898 20.8742 27.1887 20.6252 27.1887C20.3763 27.1887 20.1375 27.0898 19.9615 26.9137L8.71146 15.6637C8.62415 15.5766 8.55489 15.4732 8.50762 15.3593C8.46036 15.2454 8.43604 15.1233 8.43604 15C8.43604 14.8767 8.46036 14.7546 8.50762 14.6407C8.55489 14.5268 8.62415 14.4233 8.71146 14.3362L19.9615 3.08622C20.0485 2.99891 20.152 2.92964 20.2659 2.88238C20.3798 2.83512 20.5019 2.81079 20.6252 2.81079C20.7485 2.81079 20.8706 2.83512 20.9845 2.88238C21.0984 2.92964 21.2019 2.99891 21.289 3.08622Z" fill="#BBAF74"/>
</svg>
