<svg width="30" height="27" viewBox="0 0 30 27" fill="none" xmlns="http://www.w3.org/2000/svg">
<g clip-path="url(#clip0_341_7811)">
<path d="M14.9999 1.66663C10.7916 1.66663 7.42179 3.58329 4.96867 5.86454C2.53117 8.12496 0.90096 10.8333 0.130127 12.6927C-0.041748 13.1041 -0.041748 13.5625 0.130127 13.9739C0.90096 15.8333 2.53117 18.5416 4.96867 20.802C7.42179 23.0833 10.7916 25 14.9999 25C19.2083 25 22.578 23.0833 25.0312 20.802C27.4687 18.5364 29.0989 15.8333 29.8749 13.9739C30.0468 13.5625 30.0468 13.1041 29.8749 12.6927C29.0989 10.8333 27.4687 8.12496 25.0312 5.86454C22.578 3.58329 19.2083 1.66663 14.9999 1.66663ZM7.49992 13.3333C7.49992 11.3442 8.2901 9.43651 9.69662 8.02999C11.1031 6.62347 13.0108 5.83329 14.9999 5.83329C16.989 5.83329 18.8967 6.62347 20.3032 8.02999C21.7097 9.43651 22.4999 11.3442 22.4999 13.3333C22.4999 15.3224 21.7097 17.2301 20.3032 18.6366C18.8967 20.0431 16.989 20.8333 14.9999 20.8333C13.0108 20.8333 11.1031 20.0431 9.69662 18.6366C8.2901 17.2301 7.49992 15.3224 7.49992 13.3333ZM14.9999 9.99996C14.9999 11.8385 13.5051 13.3333 11.6666 13.3333C11.2968 13.3333 10.9426 13.2708 10.6093 13.1614C10.3228 13.0677 9.9895 13.2448 9.99992 13.5468C10.0155 13.9062 10.0676 14.2656 10.1666 14.625C10.8801 17.2916 13.6249 18.875 16.2916 18.1614C18.9583 17.4479 20.5416 14.7031 19.828 12.0364C19.2499 9.87496 17.3385 8.42183 15.2135 8.33329C14.9114 8.32288 14.7343 8.651 14.828 8.94267C14.9374 9.276 14.9999 9.63017 14.9999 9.99996Z" fill="#BBAF74"/>
</g>
<defs>
<clipPath id="clip0_341_7811">
<rect width="30" height="26.6667" fill="white"/>
</clipPath>
</defs>
</svg>
