<svg width="30" height="30" viewBox="0 0 30 30" fill="none" xmlns="http://www.w3.org/2000/svg">
<g clip-path="url(#clip0_341_8320)">
<path d="M30 15C30 18.9782 28.4196 22.7936 25.6066 25.6066C22.7936 28.4196 18.9782 30 15 30C11.0218 30 7.20644 28.4196 4.3934 25.6066C1.58035 22.7936 0 18.9782 0 15C0 11.0218 1.58035 7.20644 4.3934 4.3934C7.20644 1.58035 11.0218 0 15 0C18.9782 0 22.7936 1.58035 25.6066 4.3934C28.4196 7.20644 30 11.0218 30 15ZM12.4613 11.7C12.4613 10.4044 13.3856 9.25125 14.9662 9.25125C16.3837 9.25125 17.4281 10.1737 17.4281 11.5688C17.4281 12.8756 16.5487 13.875 15.7369 14.7656L10.1663 20.94V22.5H20.1862V20.4244H13.6275V20.28L17.3287 16.1175L17.5088 15.9169C18.7987 14.4863 19.9219 13.2394 19.9219 11.3606C19.9219 8.98687 17.9888 7.2075 15.0225 7.2075C11.7262 7.2075 10.0781 9.43875 10.0781 11.7112V11.8331H12.4613V11.7019V11.7Z" fill="#BBAF74"/>
</g>
<defs>
<clipPath id="clip0_341_8320">
<rect width="30" height="30" fill="white"/>
</clipPath>
</defs>
</svg>
