<svg width="27" height="30" viewBox="0 0 27 30" fill="none" xmlns="http://www.w3.org/2000/svg">
<g clip-path="url(#clip0_470_8238)">
<path d="M8.4375 8.4375C8.4375 5.84766 10.5352 3.75 13.125 3.75C14.9941 3.75 16.6055 4.83984 17.3613 6.42773C17.8066 7.36523 18.9258 7.76367 19.8574 7.31836C20.7891 6.87305 21.1934 5.75391 20.748 4.82227C19.3945 1.97461 16.4941 0 13.125 0C8.4668 0 4.6875 3.7793 4.6875 8.4375V11.25H3.75C1.68164 11.25 0 12.9316 0 15V26.25C0 28.3184 1.68164 30 3.75 30H22.5C24.5684 30 26.25 28.3184 26.25 26.25V15C26.25 12.9316 24.5684 11.25 22.5 11.25H8.4375V8.4375Z" fill="#BBAF74"/>
</g>
<defs>
<clipPath id="clip0_470_8238">
<rect width="26.25" height="30" fill="white"/>
</clipPath>
</defs>
</svg>
