<svg width="30" height="30" viewBox="0 0 30 30" fill="none" xmlns="http://www.w3.org/2000/svg">
<g clip-path="url(#clip0_341_4186)">
<path d="M23.8184 23.4141C22.6992 20.6777 20.0098 18.75 16.875 18.75H13.125C9.99023 18.75 7.30078 20.6777 6.18164 23.4141C4.0957 21.2227 2.8125 18.2637 2.8125 15C2.8125 8.26758 8.26758 2.8125 15 2.8125C21.7324 2.8125 27.1875 8.26758 27.1875 15C27.1875 18.2637 25.9043 21.2227 23.8184 23.4141ZM21.4688 25.3301C19.5938 26.5078 17.3789 27.1875 15 27.1875C12.6211 27.1875 10.4062 26.5078 8.52539 25.3301C8.95312 23.1797 10.8516 21.5625 13.125 21.5625H16.875C19.1484 21.5625 21.0469 23.1797 21.4746 25.3301H21.4688ZM15 30C18.9782 30 22.7936 28.4196 25.6066 25.6066C28.4196 22.7936 30 18.9782 30 15C30 11.0218 28.4196 7.20644 25.6066 4.3934C22.7936 1.58035 18.9782 0 15 0C11.0218 0 7.20644 1.58035 4.3934 4.3934C1.58035 7.20644 0 11.0218 0 15C0 18.9782 1.58035 22.7936 4.3934 25.6066C7.20644 28.4196 11.0218 30 15 30ZM15 14.0625C14.3784 14.0625 13.7823 13.8156 13.3427 13.376C12.9032 12.9365 12.6562 12.3404 12.6562 11.7188C12.6562 11.0971 12.9032 10.501 13.3427 10.0615C13.7823 9.62193 14.3784 9.375 15 9.375C15.6216 9.375 16.2177 9.62193 16.6573 10.0615C17.0968 10.501 17.3438 11.0971 17.3438 11.7188C17.3438 12.3404 17.0968 12.9365 16.6573 13.376C16.2177 13.8156 15.6216 14.0625 15 14.0625ZM9.84375 11.7188C9.84375 13.0863 10.387 14.3978 11.354 15.3648C12.321 16.3318 13.6325 16.875 15 16.875C16.3675 16.875 17.679 16.3318 18.646 15.3648C19.613 14.3978 20.1562 13.0863 20.1562 11.7188C20.1562 10.3512 19.613 9.03971 18.646 8.07273C17.679 7.10575 16.3675 6.5625 15 6.5625C13.6325 6.5625 12.321 7.10575 11.354 8.07273C10.387 9.03971 9.84375 10.3512 9.84375 11.7188Z" fill="#BBAF74"/>
</g>
<defs>
<clipPath id="clip0_341_4186">
<rect width="30" height="30" fill="white"/>
</clipPath>
</defs>
</svg>
